<svg width="53" height="60" viewBox="0 0 53 60" xmlns="http://www.w3.org/2000/svg" xmlns:xlink="http://www.w3.org/1999/xlink"><title>contentful_53x60</title><defs><path id="a" d="M0 60h52.807V.113H0"/></defs><g fill="none" fill-rule="evenodd"><mask id="b" fill="#fff"><use xlink:href="#a"/></mask><path d="M18.005 41.913l.007-.006c-3.02-3.038-4.892-7.23-4.892-11.848 0-4.628 1.87-8.82 4.896-11.853l-.01-.01c2.563-2.572 2.563-6.742 0-9.312-2.56-2.573-6.712-2.573-9.274 0C3.336 14.302 0 21.79 0 30.06c0 8.268 3.336 15.75 8.732 21.168 2.562 2.573 6.714 2.573 9.275 0 2.562-2.57 2.562-6.74 0-9.313l-.002-.002" fill="#F7E31A" mask="url(#b)"/><path d="M18.007 18.2l.007.006c3.024-3.034 7.197-4.914 11.794-4.914 4.606 0 8.78 1.88 11.8 4.918l.008-.008c2.56 2.573 6.713 2.573 9.27 0 2.562-2.573 2.562-6.744 0-9.317C45.494 3.465 38.04.113 29.808.113s-15.68 3.35-21.074 8.772c-2.56 2.573-2.56 6.744 0 9.317 2.558 2.573 6.71 2.573 9.27 0 .002 0 .003 0 .003-.002" fill="#56ADD1" mask="url(#b)"/><path d="M41.613 41.914l-.006-.007c-3.024 3.034-7.197 4.914-11.794 4.914-4.606 0-8.78-1.88-11.8-4.917l-.008.008c-2.56-2.572-6.713-2.572-9.27 0-2.562 2.575-2.562 6.745 0 9.318C14.126 56.648 21.58 60 29.812 60c8.23 0 15.68-3.35 21.073-8.772 2.562-2.573 2.562-6.743 0-9.317-2.557-2.572-6.71-2.572-9.27 0 0 .002-.002.003-.003.004" fill="#E0544E" mask="url(#b)"/><path d="M18.007 18.198c-2.56 2.573-6.713 2.573-9.275 0-2.56-2.573-2.56-6.743 0-9.313 2.562-2.573 6.714-2.573 9.275 0 2.562 2.57 2.562 6.74 0 9.313" fill="#1E77A3"/><path d="M18.007 51.228c-2.56 2.573-6.713 2.573-9.275 0-2.56-2.57-2.56-6.74 0-9.313 2.562-2.573 6.714-2.573 9.275 0 2.562 2.573 2.562 6.744 0 9.313" fill="#BD433A"/></g></svg>